<svg width="24" height="24" viewBox="0 0 24 24" fill="none" xmlns="http://www.w3.org/2000/svg">
<path d="M11.9645 4.85957C13.3768 4.85957 14.7573 5.27835 15.9316 6.06296C17.1058 6.84757 18.021 7.96276 18.5615 9.26752C19.1019 10.5723 19.2433 12.008 18.9678 13.3931C18.6923 14.7782 18.0122 16.0505 17.0136 17.0492C16.015 18.0478 14.7427 18.7278 13.3576 19.0034C11.9724 19.2789 10.5367 19.1375 9.23197 18.597C7.92722 18.0566 6.81202 17.1414 6.02742 15.9671C5.24281 14.7929 4.82403 13.4123 4.82403 12.0001C4.83134 10.1085 5.58599 8.29657 6.92351 6.95905C8.26103 5.62153 10.073 4.86688 11.9645 4.85957ZM11.9645 3.27279C10.24 3.27985 8.55616 3.79768 7.12568 4.76093C5.69519 5.72417 4.58215 7.08964 3.92707 8.68495C3.272 10.2803 3.10426 12.0339 3.44502 13.7245C3.78579 15.415 4.61978 16.9667 5.84172 18.1837C7.06366 19.4006 8.61876 20.2283 10.3107 20.5622C12.0026 20.896 13.7556 20.7211 15.3482 20.0595C16.9408 19.398 18.3017 18.2794 19.2591 16.8449C20.2165 15.4105 20.7275 13.7246 20.7275 12.0001C20.7275 10.851 20.5006 9.71319 20.0598 8.65202C19.619 7.59084 18.9729 6.62716 18.1587 5.81629C17.3445 5.00542 16.3782 4.36332 15.3153 3.92684C14.2523 3.49036 13.1136 3.26809 11.9645 3.27279Z" fill="#4EA8DE"/>
</svg>
