<svg width="236" height="48" viewBox="0 0 236 48" fill="none" xmlns="http://www.w3.org/2000/svg">
<path d="M46.875 39V9.90909H59.4318C61.5909 9.90909 63.4801 10.3021 65.0994 11.0881C66.7188 11.8741 67.9782 13.0057 68.8778 14.483C69.7775 15.9602 70.2273 17.7311 70.2273 19.7955C70.2273 21.8788 69.7633 23.6354 68.8352 25.0653C67.9167 26.4953 66.6241 27.5748 64.9574 28.304C63.3002 29.0331 61.3636 29.3977 59.1477 29.3977H51.6477V23.2614H57.5568C58.4848 23.2614 59.2756 23.1477 59.929 22.9205C60.5919 22.6837 61.0985 22.3097 61.4489 21.7983C61.8087 21.2869 61.9886 20.6193 61.9886 19.7955C61.9886 18.9621 61.8087 18.285 61.4489 17.7642C61.0985 17.2339 60.5919 16.8456 59.929 16.5994C59.2756 16.3437 58.4848 16.2159 57.5568 16.2159H54.7727V39H46.875ZM63.9205 25.6477L71.1932 39H62.6136L55.5114 25.6477H63.9205ZM83.6932 39.3977C81.3636 39.3977 79.3561 38.9527 77.6705 38.0625C75.9943 37.1629 74.7017 35.875 73.7926 34.1989C72.893 32.5133 72.4432 30.4962 72.4432 28.1477C72.4432 25.8939 72.8977 23.9242 73.8068 22.2386C74.7159 20.553 75.9991 19.2415 77.6562 18.304C79.3134 17.3665 81.2689 16.8977 83.5227 16.8977C85.1705 16.8977 86.6619 17.1534 87.9972 17.6648C89.3324 18.1761 90.4735 18.9195 91.4205 19.8949C92.3674 20.8608 93.0966 22.035 93.608 23.4176C94.1193 24.8002 94.375 26.358 94.375 28.0909V29.9091H74.8864V25.5909H87.1591C87.1496 24.9659 86.9886 24.4167 86.6761 23.9432C86.3731 23.4602 85.9612 23.0862 85.4403 22.821C84.929 22.5464 84.3466 22.4091 83.6932 22.4091C83.0587 22.4091 82.4763 22.5464 81.946 22.821C81.4157 23.0862 80.9896 23.4555 80.6676 23.929C80.3551 24.4025 80.1894 24.9564 80.1705 25.5909V30.25C80.1705 30.9508 80.3172 31.5758 80.6108 32.125C80.9044 32.6742 81.3258 33.1051 81.875 33.4176C82.4242 33.7301 83.0871 33.8864 83.8636 33.8864C84.4034 33.8864 84.8958 33.8106 85.3409 33.6591C85.7955 33.5076 86.1837 33.2898 86.5057 33.0057C86.8277 32.7121 87.0644 32.3617 87.2159 31.9545H94.375C94.1288 33.4697 93.5464 34.786 92.6278 35.9034C91.7093 37.0114 90.4924 37.8731 88.9773 38.4886C87.4716 39.0947 85.7102 39.3977 83.6932 39.3977ZM103.654 39.3409C102.262 39.3409 101.031 39.1136 99.9609 38.6591C98.9003 38.1951 98.067 37.4943 97.4609 36.5568C96.8549 35.6193 96.5518 34.4261 96.5518 32.9773C96.5518 31.7841 96.7554 30.7661 97.1626 29.9233C97.5698 29.071 98.138 28.375 98.8672 27.8352C99.5964 27.2955 100.444 26.8835 101.41 26.5994C102.385 26.3153 103.436 26.1307 104.563 26.0455C105.785 25.9508 106.765 25.8371 107.504 25.7045C108.252 25.5625 108.791 25.3684 109.123 25.1222C109.454 24.8665 109.62 24.5303 109.62 24.1136V24.0568C109.62 23.4886 109.402 23.053 108.967 22.75C108.531 22.447 107.972 22.2955 107.29 22.2955C106.542 22.2955 105.932 22.4612 105.458 22.7926C104.994 23.1146 104.715 23.6117 104.62 24.2841H97.4041C97.4988 22.9583 97.9202 21.7367 98.6683 20.6193C99.4259 19.4924 100.529 18.5928 101.978 17.9205C103.427 17.2386 105.236 16.8977 107.404 16.8977C108.967 16.8977 110.368 17.0824 111.609 17.4517C112.849 17.8116 113.905 18.3182 114.776 18.9716C115.647 19.6155 116.31 20.3731 116.765 21.2443C117.229 22.1061 117.461 23.0436 117.461 24.0568V39H110.131V35.9318H109.961C109.525 36.7462 108.995 37.4044 108.37 37.9062C107.754 38.4081 107.049 38.7727 106.254 39C105.468 39.2273 104.601 39.3409 103.654 39.3409ZM106.211 34.3977C106.808 34.3977 107.366 34.2746 107.887 34.0284C108.417 33.7822 108.848 33.4271 109.18 32.9631C109.511 32.4991 109.677 31.9356 109.677 31.2727V29.4545C109.469 29.5398 109.246 29.6203 109.009 29.696C108.782 29.7718 108.536 29.8428 108.271 29.9091C108.015 29.9754 107.74 30.0369 107.447 30.0938C107.163 30.1506 106.864 30.2027 106.552 30.25C105.946 30.3447 105.449 30.5009 105.06 30.7188C104.682 30.9271 104.397 31.1875 104.208 31.5C104.028 31.803 103.938 32.1439 103.938 32.5227C103.938 33.1288 104.151 33.5928 104.577 33.9148C105.004 34.2367 105.548 34.3977 106.211 34.3977ZM131.719 39.3977C129.351 39.3977 127.325 38.929 125.639 37.9915C123.954 37.0445 122.661 35.7282 121.761 34.0426C120.862 32.3475 120.412 30.3826 120.412 28.1477C120.412 25.9129 120.862 23.9527 121.761 22.267C122.661 20.572 123.954 19.2557 125.639 18.3182C127.325 17.3712 129.351 16.8977 131.719 16.8977C133.859 16.8977 135.71 17.286 137.273 18.0625C138.845 18.8295 140.062 19.9186 140.923 21.3295C141.785 22.7311 142.221 24.3788 142.23 26.2727H134.957C134.853 25.1269 134.522 24.2557 133.963 23.6591C133.414 23.053 132.704 22.75 131.832 22.75C131.151 22.75 130.554 22.9489 130.043 23.3466C129.531 23.7348 129.134 24.3267 128.849 25.1222C128.565 25.9081 128.423 26.8977 128.423 28.0909C128.423 29.2841 128.565 30.2784 128.849 31.0739C129.134 31.8598 129.531 32.4517 130.043 32.8494C130.554 33.2377 131.151 33.4318 131.832 33.4318C132.41 33.4318 132.921 33.2992 133.366 33.0341C133.812 32.7595 134.171 32.3617 134.446 31.8409C134.73 31.3106 134.901 30.6667 134.957 29.9091H142.23C142.202 31.8314 141.761 33.5076 140.909 34.9375C140.057 36.358 138.849 37.4564 137.287 38.233C135.734 39.0095 133.878 39.3977 131.719 39.3977ZM158.477 17.1818V22.8636H144.102V17.1818H158.477ZM146.886 11.9545H154.727V31.983C154.727 32.286 154.779 32.5417 154.883 32.75C154.987 32.9489 155.148 33.1004 155.366 33.2045C155.584 33.2992 155.863 33.3466 156.204 33.3466C156.441 33.3466 156.715 33.3182 157.028 33.2614C157.35 33.2045 157.586 33.1572 157.738 33.1193L158.874 38.6307C158.524 38.7348 158.022 38.8627 157.369 39.0142C156.725 39.1657 155.958 39.2652 155.067 39.3125C153.268 39.4072 151.758 39.2225 150.536 38.7585C149.315 38.285 148.396 37.5417 147.781 36.5284C147.165 35.5152 146.867 34.2462 146.886 32.7216V11.9545ZM171.953 39.3977C169.586 39.3977 167.559 38.929 165.874 37.9915C164.188 37.0445 162.895 35.7282 161.996 34.0426C161.096 32.3475 160.646 30.3826 160.646 28.1477C160.646 25.9129 161.096 23.9527 161.996 22.267C162.895 20.572 164.188 19.2557 165.874 18.3182C167.559 17.3712 169.586 16.8977 171.953 16.8977C174.321 16.8977 176.347 17.3712 178.033 18.3182C179.718 19.2557 181.011 20.572 181.911 22.267C182.81 23.9527 183.26 25.9129 183.26 28.1477C183.26 30.3826 182.81 32.3475 181.911 34.0426C181.011 35.7282 179.718 37.0445 178.033 37.9915C176.347 38.929 174.321 39.3977 171.953 39.3977ZM172.01 33.6023C172.673 33.6023 173.246 33.3797 173.729 32.9347C174.212 32.4896 174.586 31.8551 174.851 31.0312C175.116 30.2074 175.249 29.2273 175.249 28.0909C175.249 26.9451 175.116 25.965 174.851 25.1506C174.586 24.3267 174.212 23.6922 173.729 23.2472C173.246 22.8021 172.673 22.5795 172.01 22.5795C171.309 22.5795 170.708 22.8021 170.206 23.2472C169.704 23.6922 169.321 24.3267 169.055 25.1506C168.79 25.965 168.658 26.9451 168.658 28.0909C168.658 29.2273 168.79 30.2074 169.055 31.0312C169.321 31.8551 169.704 32.4896 170.206 32.9347C170.708 33.3797 171.309 33.6023 172.01 33.6023Z" fill="#4EA8DE"/>
<path d="M194.339 39.2841C192.786 39.2841 191.357 38.8769 190.05 38.0625C188.752 37.2481 187.711 36.0123 186.925 34.3551C186.148 32.6979 185.76 30.6098 185.76 28.0909C185.76 25.4583 186.167 23.3182 186.982 21.6705C187.805 20.0227 188.866 18.8153 190.163 18.0483C191.47 17.2812 192.843 16.8977 194.283 16.8977C195.362 16.8977 196.309 17.0871 197.124 17.4659C197.938 17.8352 198.62 18.3324 199.169 18.9574C199.718 19.5729 200.135 20.25 200.419 20.9886H200.533V9.90909H208.374V39H200.589V35.4205H200.419C200.116 36.1591 199.68 36.822 199.112 37.4091C198.554 37.9867 197.872 38.446 197.067 38.7869C196.271 39.1184 195.362 39.2841 194.339 39.2841ZM197.237 33.2614C197.957 33.2614 198.572 33.053 199.084 32.6364C199.605 32.2102 200.002 31.6136 200.277 30.8466C200.561 30.0701 200.703 29.1515 200.703 28.0909C200.703 27.0114 200.561 26.0881 200.277 25.321C200.002 24.5445 199.605 23.9527 199.084 23.5455C198.572 23.1288 197.957 22.9205 197.237 22.9205C196.518 22.9205 195.902 23.1288 195.391 23.5455C194.889 23.9527 194.5 24.5445 194.226 25.321C193.961 26.0881 193.828 27.0114 193.828 28.0909C193.828 29.1705 193.961 30.0985 194.226 30.875C194.5 31.642 194.889 32.2339 195.391 32.6506C195.902 33.0578 196.518 33.2614 197.237 33.2614ZM222.734 39.3977C220.367 39.3977 218.34 38.929 216.655 37.9915C214.969 37.0445 213.677 35.7282 212.777 34.0426C211.877 32.3475 211.428 30.3826 211.428 28.1477C211.428 25.9129 211.877 23.9527 212.777 22.267C213.677 20.572 214.969 19.2557 216.655 18.3182C218.34 17.3712 220.367 16.8977 222.734 16.8977C225.102 16.8977 227.128 17.3712 228.814 18.3182C230.5 19.2557 231.792 20.572 232.692 22.267C233.591 23.9527 234.041 25.9129 234.041 28.1477C234.041 30.3826 233.591 32.3475 232.692 34.0426C231.792 35.7282 230.5 37.0445 228.814 37.9915C227.128 38.929 225.102 39.3977 222.734 39.3977ZM222.791 33.6023C223.454 33.6023 224.027 33.3797 224.51 32.9347C224.993 32.4896 225.367 31.8551 225.632 31.0312C225.897 30.2074 226.03 29.2273 226.03 28.0909C226.03 26.9451 225.897 25.965 225.632 25.1506C225.367 24.3267 224.993 23.6922 224.51 23.2472C224.027 22.8021 223.454 22.5795 222.791 22.5795C222.09 22.5795 221.489 22.8021 220.987 23.2472C220.485 23.6922 220.102 24.3267 219.837 25.1506C219.571 25.965 219.439 26.9451 219.439 28.0909C219.439 29.2273 219.571 30.2074 219.837 31.0312C220.102 31.8551 220.485 32.4896 220.987 32.9347C221.489 33.3797 222.09 33.6023 222.791 33.6023Z" fill="#5E60CE"/>
<path d="M36 24.7935C36 22.1437 33.0135 19.6325 28.4346 18.0752C29.4912 12.8897 29.0216 8.76414 26.9523 7.44331C26.4753 7.13349 25.9177 6.98673 25.3086 6.98673V8.80491C25.6461 8.80491 25.9177 8.87829 26.1451 9.0169C27.1431 9.65285 27.576 12.0744 27.2385 15.1889C27.1578 15.9553 27.0257 16.7625 26.8642 17.586C25.426 17.1946 23.8557 16.893 22.2046 16.6973C21.214 15.1889 20.1867 13.8192 19.1521 12.6206C21.5442 10.1502 23.7896 8.79676 25.3159 8.79676V6.97858C23.298 6.97858 20.6563 8.57662 17.9853 11.3487C15.3143 8.59293 12.6726 7.01119 10.6547 7.01119V8.82937C12.1737 8.82937 14.4264 10.1747 16.8186 12.6288C15.7913 13.8273 14.764 15.1889 13.788 16.6973C12.1296 16.893 10.5593 17.1946 9.12108 17.5941C8.9523 16.7788 8.82756 15.988 8.7395 15.2297C8.39462 12.1151 8.82022 9.69362 9.81084 9.04951C10.031 8.90275 10.3172 8.83752 10.6547 8.83752V7.01934C10.0383 7.01934 9.48064 7.1661 8.99633 7.47593C6.93437 8.79676 6.47208 12.9142 7.53608 18.0833C2.97187 19.6488 0 22.1518 0 24.7935C0 27.4433 2.98655 29.9545 7.56543 31.5118C6.50876 36.6973 6.97839 40.8228 9.0477 42.1437C9.52466 42.4535 10.0823 42.6003 10.6987 42.6003C12.7167 42.6003 15.3583 41.0022 18.0294 38.2301C20.7004 40.9859 23.342 42.5676 25.36 42.5676C25.9764 42.5676 26.534 42.4209 27.0183 42.1111C29.0803 40.7902 29.5426 36.6728 28.4786 31.5036C33.0281 29.9464 36 27.4352 36 24.7935V24.7935ZM26.446 19.3553C26.1745 20.407 25.8369 21.4914 25.4554 22.5758C25.1545 21.9235 24.839 21.2713 24.4941 20.619C24.1565 19.9668 23.797 19.3308 23.4374 18.7111C24.4794 18.8824 25.4847 19.0944 26.446 19.3553ZM23.0852 28.0385C22.5128 29.1392 21.9258 30.1828 21.3168 31.1531C20.2234 31.259 19.1154 31.3161 18 31.3161C16.892 31.3161 15.7839 31.259 14.6979 31.1612C14.0889 30.191 13.4945 29.1555 12.9221 28.063C12.3645 26.9949 11.8581 25.9105 11.3958 24.818C11.8508 23.7254 12.3645 22.6329 12.9148 21.5648C13.4872 20.4641 14.0742 19.4205 14.6832 18.4502C15.7766 18.3442 16.8846 18.2872 18 18.2872C19.108 18.2872 20.2161 18.3443 21.3021 18.4421C21.9111 19.4123 22.5055 20.4478 23.0779 21.5403C23.6355 22.6084 24.1419 23.6928 24.6042 24.7853C24.1419 25.8779 23.6355 26.9704 23.0852 28.0385ZM25.4554 26.9786C25.8516 28.0711 26.1892 29.1637 26.468 30.2236C25.5067 30.4845 24.4941 30.7046 23.4448 30.8758C23.8043 30.248 24.1639 29.6039 24.5014 28.9435C24.839 28.2913 25.1545 27.6308 25.4554 26.9786ZM18.0147 35.6781C17.3322 34.8954 16.6498 34.023 15.9747 33.0691C16.6351 33.1017 17.3102 33.1261 17.9927 33.1261C18.6824 33.1261 19.3649 33.1098 20.0326 33.0691C19.3722 34.023 18.6898 34.8954 18.0147 35.6781ZM12.5552 30.8758C11.5132 30.7046 10.5079 30.4926 9.54668 30.2317C9.81818 29.18 10.1557 28.0956 10.5373 27.0112C10.8382 27.6635 11.1537 28.3157 11.4986 28.968C11.8435 29.6202 12.1957 30.2562 12.5552 30.8758ZM17.978 13.9089C18.6604 14.6916 19.3428 15.564 20.0179 16.5179C19.3575 16.4853 18.6824 16.4608 18 16.4608C17.3102 16.4608 16.6278 16.4771 15.9601 16.5179C16.6205 15.564 17.3029 14.6916 17.978 13.9089ZM12.5479 18.7111C12.1883 19.3389 11.8288 19.9831 11.4912 20.6435C11.1537 21.2957 10.8382 21.948 10.5373 22.6003C10.1411 21.5077 9.80351 20.4152 9.52466 19.3553C10.4859 19.1025 11.4986 18.8824 12.5479 18.7111V18.7111ZM5.90705 28.9191C3.30942 27.6879 1.62903 26.0736 1.62903 24.7935C1.62903 23.5134 3.30942 21.8909 5.90705 20.6679C6.53812 20.3663 7.22788 20.0972 7.93967 19.8445C8.35793 21.4425 8.90828 23.1058 9.59071 24.8098C8.91561 26.5057 8.37261 28.1608 7.96168 29.7507C7.23522 29.4979 6.54546 29.2207 5.90705 28.9191ZM9.85487 40.5701C8.85691 39.9341 8.42397 37.5126 8.76152 34.3981C8.84224 33.6317 8.97432 32.8245 9.13575 32.001C10.574 32.3924 12.1443 32.694 13.7954 32.8897C14.786 34.3981 15.8133 35.7678 16.8479 36.9663C14.4558 39.4368 12.2104 40.7902 10.6841 40.7902C10.3539 40.7821 10.075 40.7087 9.85487 40.5701V40.5701ZM27.2605 34.3573C27.6054 37.4718 27.1798 39.8934 26.1892 40.5375C25.969 40.6842 25.6828 40.7495 25.3453 40.7495C23.8263 40.7495 21.5736 39.4042 19.1814 36.95C20.2087 35.7515 21.236 34.3899 22.212 32.8816C23.8704 32.6859 25.4407 32.3842 26.8789 31.9847C27.0477 32.8082 27.1798 33.599 27.2605 34.3573V34.3573ZM30.0856 28.9191C29.4545 29.2207 28.7648 29.4898 28.053 29.7425C27.6347 28.1445 27.0844 26.4812 26.402 24.7772C27.077 23.0813 27.6201 21.4262 28.031 19.8363C28.7574 20.0891 29.4472 20.3663 30.0929 20.6679C32.6906 21.8991 34.371 23.5134 34.371 24.7935C34.3636 26.0736 32.6832 27.6961 30.0856 28.9191V28.9191Z" fill="#4EA8DE"/>
<path d="M17.9926 28.5195C19.8447 28.5195 21.346 26.8513 21.346 24.7935C21.346 22.7357 19.8447 21.0674 17.9926 21.0674C16.1405 21.0674 14.6392 22.7357 14.6392 24.7935C14.6392 26.8513 16.1405 28.5195 17.9926 28.5195Z" fill="#4EA8DE"/>
</svg>
