<svg width="213" height="31" viewBox="0 0 213 31" fill="none" xmlns="http://www.w3.org/2000/svg">
<path d="M0.875 30V0.90909H13.4318C15.5909 0.90909 17.4801 1.30208 19.0994 2.08807C20.7188 2.87405 21.9782 4.00568 22.8778 5.48295C23.7775 6.96023 24.2273 8.73106 24.2273 10.7955C24.2273 12.8788 23.7633 14.6354 22.8352 16.0653C21.9167 17.4953 20.6241 18.5748 18.9574 19.304C17.3002 20.0331 15.3636 20.3977 13.1477 20.3977H5.64773V14.2614H11.5568C12.4848 14.2614 13.2756 14.1477 13.929 13.9205C14.5919 13.6837 15.0985 13.3097 15.4489 12.7983C15.8087 12.2869 15.9886 11.6193 15.9886 10.7955C15.9886 9.96212 15.8087 9.28504 15.4489 8.7642C15.0985 8.2339 14.5919 7.84564 13.929 7.59943C13.2756 7.34375 12.4848 7.21591 11.5568 7.21591H8.77273V30H0.875ZM17.9205 16.6477L25.1932 30H16.6136L9.51136 16.6477H17.9205ZM37.75 30.3977C35.3826 30.3977 33.3561 29.929 31.6705 28.9915C29.9848 28.0445 28.6922 26.7282 27.7926 25.0426C26.893 23.3475 26.4432 21.3826 26.4432 19.1477C26.4432 16.9129 26.893 14.9527 27.7926 13.267C28.6922 11.572 29.9848 10.2557 31.6705 9.31818C33.3561 8.37121 35.3826 7.89773 37.75 7.89773C40.1174 7.89773 42.1439 8.37121 43.8295 9.31818C45.5152 10.2557 46.8078 11.572 47.7074 13.267C48.607 14.9527 49.0568 16.9129 49.0568 19.1477C49.0568 21.3826 48.607 23.3475 47.7074 25.0426C46.8078 26.7282 45.5152 28.0445 43.8295 28.9915C42.1439 29.929 40.1174 30.3977 37.75 30.3977ZM37.8068 24.6023C38.4697 24.6023 39.0426 24.3797 39.5256 23.9347C40.0085 23.4896 40.3826 22.8551 40.6477 22.0312C40.9129 21.2074 41.0455 20.2273 41.0455 19.0909C41.0455 17.9451 40.9129 16.965 40.6477 16.1506C40.3826 15.3267 40.0085 14.6922 39.5256 14.2472C39.0426 13.8021 38.4697 13.5795 37.8068 13.5795C37.1061 13.5795 36.5047 13.8021 36.0028 14.2472C35.5009 14.6922 35.1174 15.3267 34.8523 16.1506C34.5871 16.965 34.4545 17.9451 34.4545 19.0909C34.4545 20.2273 34.5871 21.2074 34.8523 22.0312C35.1174 22.8551 35.5009 23.4896 36.0028 23.9347C36.5047 24.3797 37.1061 24.6023 37.8068 24.6023ZM62.75 30.3977C60.3826 30.3977 58.3561 29.929 56.6705 28.9915C54.9848 28.0445 53.6922 26.7282 52.7926 25.0426C51.893 23.3475 51.4432 21.3826 51.4432 19.1477C51.4432 16.9129 51.893 14.9527 52.7926 13.267C53.6922 11.572 54.9848 10.2557 56.6705 9.31818C58.3561 8.37121 60.3826 7.89773 62.75 7.89773C64.8902 7.89773 66.7415 8.28598 68.304 9.0625C69.8759 9.82955 71.0928 10.9186 71.9545 12.3295C72.8163 13.7311 73.2519 15.3788 73.2614 17.2727H65.9886C65.8845 16.1269 65.553 15.2557 64.9943 14.6591C64.4451 14.053 63.7348 13.75 62.8636 13.75C62.1818 13.75 61.5852 13.9489 61.0739 14.3466C60.5625 14.7348 60.1648 15.3267 59.8807 16.1222C59.5966 16.9081 59.4545 17.8977 59.4545 19.0909C59.4545 20.2841 59.5966 21.2784 59.8807 22.0739C60.1648 22.8598 60.5625 23.4517 61.0739 23.8494C61.5852 24.2377 62.1818 24.4318 62.8636 24.4318C63.4413 24.4318 63.9527 24.2992 64.3977 24.0341C64.8428 23.7595 65.2027 23.3617 65.4773 22.8409C65.7614 22.3106 65.9318 21.6667 65.9886 20.9091H73.2614C73.233 22.8314 72.7926 24.5076 71.9403 25.9375C71.0881 27.358 69.8807 28.4564 68.3182 29.233C66.7652 30.0095 64.9091 30.3977 62.75 30.3977ZM83.5419 24.8295L83.5987 15.5114H84.6214L89.9055 8.18182H98.7124L89.8487 19.6023H87.6328L83.5419 24.8295ZM76.4964 30V0.90909H84.3374V30H76.4964ZM89.9624 30L84.9624 21.3636L90.076 15.7955L98.9396 30H89.9624ZM110.31 30.3977C107.981 30.3977 105.973 29.9527 104.288 29.0625C102.612 28.1629 101.319 26.875 100.41 25.1989C99.5102 23.5133 99.0604 21.4962 99.0604 19.1477C99.0604 16.8939 99.5149 14.9242 100.424 13.2386C101.333 11.553 102.616 10.2415 104.273 9.30398C105.931 8.36648 107.886 7.89773 110.14 7.89773C111.788 7.89773 113.279 8.15341 114.614 8.66477C115.95 9.17614 117.091 9.91951 118.038 10.8949C118.985 11.8608 119.714 13.035 120.225 14.4176C120.737 15.8002 120.992 17.358 120.992 19.0909V20.9091H101.504V16.5909H113.776C113.767 15.9659 113.606 15.4167 113.293 14.9432C112.99 14.4602 112.578 14.0862 112.058 13.821C111.546 13.5464 110.964 13.4091 110.31 13.4091C109.676 13.4091 109.094 13.5464 108.563 13.821C108.033 14.0862 107.607 14.4555 107.285 14.929C106.972 15.4025 106.807 15.9564 106.788 16.5909V21.25C106.788 21.9508 106.934 22.5758 107.228 23.125C107.522 23.6742 107.943 24.1051 108.492 24.4176C109.041 24.7301 109.704 24.8864 110.481 24.8864C111.021 24.8864 111.513 24.8106 111.958 24.6591C112.413 24.5076 112.801 24.2898 113.123 24.0057C113.445 23.7121 113.682 23.3617 113.833 22.9545H120.992C120.746 24.4697 120.164 25.786 119.245 26.9034C118.326 28.0114 117.11 28.8731 115.594 29.4886C114.089 30.0947 112.327 30.3977 110.31 30.3977ZM137.203 8.18182V13.8636H122.828V8.18182H137.203ZM125.612 2.95455H133.453V22.983C133.453 23.286 133.505 23.5417 133.609 23.75C133.714 23.9489 133.875 24.1004 134.092 24.2045C134.31 24.2992 134.589 24.3466 134.93 24.3466C135.167 24.3466 135.442 24.3182 135.754 24.2614C136.076 24.2045 136.313 24.1572 136.464 24.1193L137.601 29.6307C137.25 29.7348 136.749 29.8627 136.095 30.0142C135.451 30.1657 134.684 30.2652 133.794 30.3125C131.995 30.4072 130.484 30.2225 129.263 29.7585C128.041 29.285 127.123 28.5417 126.507 27.5284C125.892 26.5152 125.593 25.2462 125.612 23.7216V2.95455ZM150.68 30.3977C148.312 30.3977 146.286 29.929 144.6 28.9915C142.915 28.0445 141.622 26.7282 140.722 25.0426C139.823 23.3475 139.373 21.3826 139.373 19.1477C139.373 16.9129 139.823 14.9527 140.722 13.267C141.622 11.572 142.915 10.2557 144.6 9.31818C146.286 8.37121 148.312 7.89773 150.68 7.89773C153.047 7.89773 155.074 8.37121 156.759 9.31818C158.445 10.2557 159.737 11.572 160.637 13.267C161.537 14.9527 161.987 16.9129 161.987 19.1477C161.987 21.3826 161.537 23.3475 160.637 25.0426C159.737 26.7282 158.445 28.0445 156.759 28.9915C155.074 29.929 153.047 30.3977 150.68 30.3977ZM150.737 24.6023C151.399 24.6023 151.972 24.3797 152.455 23.9347C152.938 23.4896 153.312 22.8551 153.577 22.0312C153.843 21.2074 153.975 20.2273 153.975 19.0909C153.975 17.9451 153.843 16.965 153.577 16.1506C153.312 15.3267 152.938 14.6922 152.455 14.2472C151.972 13.8021 151.399 13.5795 150.737 13.5795C150.036 13.5795 149.434 13.8021 148.933 14.2472C148.431 14.6922 148.047 15.3267 147.782 16.1506C147.517 16.965 147.384 17.9451 147.384 19.0909C147.384 20.2273 147.517 21.2074 147.782 22.0312C148.047 22.8551 148.431 23.4896 148.933 23.9347C149.434 24.3797 150.036 24.6023 150.737 24.6023Z" fill="#4EA8DE"/>
<path d="M173.066 30.2841C171.513 30.2841 170.083 29.8769 168.776 29.0625C167.479 28.2481 166.437 27.0123 165.651 25.3551C164.875 23.6979 164.487 21.6098 164.487 19.0909C164.487 16.4583 164.894 14.3182 165.708 12.6705C166.532 11.0227 167.593 9.81534 168.89 9.0483C170.197 8.28125 171.57 7.89773 173.009 7.89773C174.089 7.89773 175.036 8.08712 175.85 8.46591C176.665 8.83523 177.346 9.33239 177.896 9.95739C178.445 10.5729 178.862 11.25 179.146 11.9886H179.259V0.90909H187.1V30H179.316V26.4205H179.146C178.843 27.1591 178.407 27.822 177.839 28.4091C177.28 28.9867 176.598 29.446 175.793 29.7869C174.998 30.1184 174.089 30.2841 173.066 30.2841ZM175.964 24.2614C176.683 24.2614 177.299 24.053 177.81 23.6364C178.331 23.2102 178.729 22.6136 179.004 21.8466C179.288 21.0701 179.43 20.1515 179.43 19.0909C179.43 18.0114 179.288 17.0881 179.004 16.321C178.729 15.5445 178.331 14.9527 177.81 14.5455C177.299 14.1288 176.683 13.9205 175.964 13.9205C175.244 13.9205 174.629 14.1288 174.117 14.5455C173.615 14.9527 173.227 15.5445 172.952 16.321C172.687 17.0881 172.555 18.0114 172.555 19.0909C172.555 20.1705 172.687 21.0985 172.952 21.875C173.227 22.642 173.615 23.2339 174.117 23.6506C174.629 24.0578 175.244 24.2614 175.964 24.2614ZM201.461 30.3977C199.094 30.3977 197.067 29.929 195.381 28.9915C193.696 28.0445 192.403 26.7282 191.504 25.0426C190.604 23.3475 190.154 21.3826 190.154 19.1477C190.154 16.9129 190.604 14.9527 191.504 13.267C192.403 11.572 193.696 10.2557 195.381 9.31818C197.067 8.37121 199.094 7.89773 201.461 7.89773C203.828 7.89773 205.855 8.37121 207.54 9.31818C209.226 10.2557 210.519 11.572 211.418 13.267C212.318 14.9527 212.768 16.9129 212.768 19.1477C212.768 21.3826 212.318 23.3475 211.418 25.0426C210.519 26.7282 209.226 28.0445 207.54 28.9915C205.855 29.929 203.828 30.3977 201.461 30.3977ZM201.518 24.6023C202.181 24.6023 202.754 24.3797 203.237 23.9347C203.719 23.4896 204.094 22.8551 204.359 22.0312C204.624 21.2074 204.756 20.2273 204.756 19.0909C204.756 17.9451 204.624 16.965 204.359 16.1506C204.094 15.3267 203.719 14.6922 203.237 14.2472C202.754 13.8021 202.181 13.5795 201.518 13.5795C200.817 13.5795 200.216 13.8021 199.714 14.2472C199.212 14.6922 198.828 15.3267 198.563 16.1506C198.298 16.965 198.165 17.9451 198.165 19.0909C198.165 20.2273 198.298 21.2074 198.563 22.0312C198.828 22.8551 199.212 23.4896 199.714 23.9347C200.216 24.3797 200.817 24.6023 201.518 24.6023Z" fill="#5E60CE"/>
</svg>
